<svg width="494" height="490" viewBox="0 0 494 490" fill="none" xmlns="http://www.w3.org/2000/svg">
<g clip-path="url(#clip0_14_12)">
<path d="M247 0L490.353 189.75H3.64687L247 0Z" fill="#8C0C30"/>
<path d="M4 197C4 157.235 36.2355 125 76 125H417C456.765 125 489 157.235 489 197V418C489 457.764 456.765 490 417 490H76C36.2355 490 4 457.764 4 418V197Z" fill="#1E96FC"/>
<path d="M5 244C5 204.235 37.2355 172 77 172H418C457.765 172 490 204.235 490 244V402C490 441.765 457.765 474 418 474H77C37.2355 474 5 441.765 5 402V244Z" fill="#FFCF56"/>
<path d="M5 244C5 204.235 37.2355 172 77 172H418C457.765 172 490 204.235 490 244V402C490 441.765 457.765 474 418 474H77C37.2355 474 5 441.765 5 402V244Z" fill="#FFCF56"/>
<path d="M3 294C3 254.235 35.2355 222 75 222H416C455.765 222 488 254.235 488 294V413C488 452.765 455.765 485 416 485H75C35.2355 485 3 452.765 3 413V294Z" fill="#1A202C"/>
<path d="M482.495 490H5C4.44772 490 4 489.552 4 489V190.617L483.022 488.151C483.877 488.681 483.501 490 482.495 490Z" fill="#FF1053"/>
<path d="M4 190V190.617M4 190.617V489C4 489.552 4.44772 490 5 490H482.495C483.501 490 483.877 488.681 483.022 488.151L4 190.617Z" stroke="#FF1053" stroke-width="3"/>
<path d="M4.54236 490H488C488.552 490 489 489.552 489 489V190.617L4.01944 488.148C3.15933 488.675 3.53333 490 4.54236 490Z" fill="#FF1053"/>
<path d="M489 190V190.617M489 190.617V489C489 489.552 488.552 490 488 490H4.54236C3.53331 490 3.15934 488.675 4.01943 488.148L489 190.617Z" stroke="#1A202C" stroke-width="3"/>
</g>
<defs>
<clipPath id="clip0_14_12">
<rect width="494" height="490" fill="white"/>
</clipPath>
</defs>
</svg>
